<?xml version="1.0" encoding="iso-8859-1"?>
<!-- Generator: Adobe Illustrator 17.1.0, SVG Export Plug-In . SVG Version: 6.00 Build 0)  -->
<!DOCTYPE svg PUBLIC "-//W3C//DTD SVG 1.1//EN" "http://www.w3.org/Graphics/SVG/1.1/DTD/svg11.dtd">
<svg version="1.1" id="Capa_1" xmlns="http://www.w3.org/2000/svg" xmlns:xlink="http://www.w3.org/1999/xlink" x="0px" y="0px"
	 viewBox="0 0 317 317" style="enable-background:new 0 0 317 317;" xml:space="preserve">
<path d="M302,13H15C6.729,13,0,19.729,0,28v261c0,8.272,6.729,15,15,15h287c8.271,0,15-6.728,15-15V28C317,19.729,310.271,13,302,13
	z M114.348,139.361c0.853-1.638,2.606-2.361,4.812-2.361h21.876c0.542,0,0.964-0.891,0.964-1.433v-79.01
	c0-3.859,3.176-6.558,7.036-6.558h17.95c3.86,0,7.014,2.698,7.014,6.558v79.007c0,0.542,0.444,1.436,0.986,1.436h21.87
	c2.206,0,3.96,0.722,4.812,2.359c0.852,1.638,0.616,3.504-0.65,5.311l-38.259,54.554c-1.171,1.671-2.903,2.603-4.752,2.603
	c-1.849,0-3.581-0.973-4.752-2.643l-38.256-54.503C113.733,142.873,113.496,140.999,114.348,139.361z M254,265H62
	c-8.284,0-15-6.716-15-15c0-8.284,6.716-15,15-15h192c8.284,0,15,6.716,15,15C269,258.284,262.284,265,254,265z"/>
<g>
</g>
<g>
</g>
<g>
</g>
<g>
</g>
<g>
</g>
<g>
</g>
<g>
</g>
<g>
</g>
<g>
</g>
<g>
</g>
<g>
</g>
<g>
</g>
<g>
</g>
<g>
</g>
<g>
</g>
</svg>
